<?xml version="1.0" encoding="utf-8"?>
<!-- Generator: Adobe Illustrator 25.4.1, SVG Export Plug-In . SVG Version: 6.00 Build 0)  -->
<svg version="1.1" id="Layer_1" xmlns="http://www.w3.org/2000/svg" xmlns:xlink="http://www.w3.org/1999/xlink" x="0px" y="0px"
	 viewBox="0 0 348 104" style="enable-background:new 0 0 348 104;" xml:space="preserve">
<style type="text/css">
	.st0{fill:#23201F;}
	.st1{fill:none;stroke:#231F20;stroke-width:0.5;stroke-miterlimit:10;}
	.st2{clip-path:url(#SVGID_00000049942296537367871370000013821580938744285620_);}
	.st3{fill:url(#SVGID_00000172415466092102276540000014206316532173219506_);}
	.st4{clip-path:url(#SVGID_00000070816682971374483040000016123106881535761288_);}
	.st5{fill:url(#SVGID_00000150060504847203514450000003429699066454069927_);}
	.st6{clip-path:url(#SVGID_00000113353139327864097030000012303839737854379440_);}
	.st7{fill:url(#SVGID_00000092415617978972170350000006286807557536255667_);}
	.st8{clip-path:url(#SVGID_00000111904639324576671430000018007473330303593151_);}
	.st9{fill:url(#SVGID_00000103956819544786993400000003942541532775460249_);}
	.st10{clip-path:url(#SVGID_00000052100328752271921060000003426018519287069315_);}
	.st11{fill:url(#SVGID_00000068654485738842698010000016495009534898581155_);}
	.st12{clip-path:url(#SVGID_00000003796330071837116630000005141961572958833068_);}
	.st13{fill:url(#SVGID_00000161600557586466175490000007797859691065024701_);}
	.st14{clip-path:url(#SVGID_00000049906930185316323650000000715748214191628448_);}
	.st15{fill:url(#SVGID_00000114055116604508600770000001067696161255455916_);}
	.st16{clip-path:url(#SVGID_00000072259689974781656390000006359335807135729842_);}
	.st17{fill:url(#SVGID_00000183950898277821884330000007914671400882219191_);}
	.st18{clip-path:url(#SVGID_00000074421019300891461110000009664411453088857790_);}
	.st19{fill:url(#SVGID_00000052076644426319236900000012456771599730264510_);}
	.st20{clip-path:url(#SVGID_00000148623566089054466300000018442169977910577288_);}
	.st21{fill:url(#SVGID_00000067948342757713262370000015708081185578398860_);}
	.st22{clip-path:url(#SVGID_00000141433554280255011640000008145408950803834019_);}
	.st23{fill:url(#SVGID_00000035504395356152922830000008513318938838928299_);}
	.st24{clip-path:url(#SVGID_00000170245206881656578550000003170984451419636664_);}
	.st25{fill:url(#SVGID_00000128478199640870584960000010910084977320902843_);}
	.st26{clip-path:url(#SVGID_00000070817587553091347470000008172890952983827128_);}
	.st27{fill:url(#SVGID_00000025427604223573608780000007411639858997509262_);}
	.st28{clip-path:url(#SVGID_00000101067443286875803100000008050056029440935306_);}
	.st29{fill:url(#SVGID_00000088821502823113527400000016514479812726989955_);}
	.st30{clip-path:url(#SVGID_00000086659886762239546540000017500801004282817953_);}
	.st31{fill:url(#SVGID_00000124151733438531040100000000372687534300935318_);}
	.st32{clip-path:url(#SVGID_00000062179837723037217180000014879716702938023082_);}
	.st33{fill:url(#SVGID_00000156569309063813973090000002450913633611073983_);}
	.st34{clip-path:url(#SVGID_00000067236139832524759210000002900588970936781472_);}
	.st35{fill:url(#SVGID_00000153703410188485327930000013760479456220947094_);}
	.st36{clip-path:url(#SVGID_00000159471852306743480040000012662395633703772055_);}
	.st37{fill:url(#SVGID_00000067214413630336125370000005436641479489216934_);}
	.st38{clip-path:url(#SVGID_00000143618049466234406700000011861719653950640793_);}
	.st39{fill:url(#SVGID_00000017514413704095746390000016759608664979995571_);}
	.st40{clip-path:url(#SVGID_00000160892980118102341400000008153041646422497453_);}
	.st41{fill:url(#SVGID_00000116944153518480535010000004055490129639784340_);}
	.st42{clip-path:url(#SVGID_00000032644344807092488180000009782408028968281497_);}
	.st43{fill:url(#SVGID_00000075163341180412910970000008725675813209885353_);}
	.st44{clip-path:url(#SVGID_00000101089561078472254610000010808302004589811337_);}
	.st45{fill:url(#SVGID_00000031186437280736615440000010767423450826382981_);}
	.st46{clip-path:url(#SVGID_00000022527462828101347090000005239165871984946092_);}
	.st47{fill:url(#SVGID_00000106144603448867560640000006756528787608167317_);}
	.st48{clip-path:url(#SVGID_00000000910630887850163110000012507538154769638802_);}
	.st49{fill:url(#SVGID_00000017481978417934297920000006977797171335760814_);}
	.st50{clip-path:url(#SVGID_00000110464430932095447900000013866320499175555216_);}
	.st51{fill:url(#SVGID_00000072991014384222387470000016599498829197927594_);}
	.st52{clip-path:url(#SVGID_00000035508401241169763420000005736693630566473407_);}
	.st53{fill:url(#SVGID_00000097498033729604953420000004925210247816572321_);}
	.st54{clip-path:url(#SVGID_00000021099669485124673050000007494895486917323664_);}
	.st55{fill:url(#SVGID_00000031889473761266037610000006324931450190955908_);}
	.st56{clip-path:url(#SVGID_00000134224712865397848550000009007410597586760108_);}
	.st57{fill:url(#SVGID_00000169541533624902211980000012490070833640745871_);}
	.st58{clip-path:url(#SVGID_00000182526812083776724430000012160048742612962455_);}
	.st59{fill:url(#SVGID_00000074424289146187041570000002842017202425676467_);}
	.st60{clip-path:url(#SVGID_00000060019938053135791860000002856197095842221442_);}
	.st61{fill:url(#SVGID_00000142856357908989492840000010761161228796833972_);}
	.st62{clip-path:url(#SVGID_00000047772656213938120200000013655931990314377886_);}
	.st63{fill:url(#SVGID_00000017517401058289517380000012184371078116552861_);}
	.st64{clip-path:url(#SVGID_00000113341791099230649010000007418893198599360130_);}
	.st65{fill:url(#SVGID_00000056411238701652762410000006945146566243806609_);}
	.st66{clip-path:url(#SVGID_00000183932717917483901710000017453993957690118563_);}
	.st67{fill:url(#SVGID_00000143597303922488989240000008930943050972757662_);}
	.st68{clip-path:url(#SVGID_00000038387176024980421950000000148905990717788350_);}
	.st69{fill:url(#SVGID_00000000939696016233406150000001716271279989981118_);}
	.st70{clip-path:url(#SVGID_00000075881622772553798390000015057973682469244289_);}
	.st71{fill:url(#SVGID_00000015355340265732887120000009278063827346536337_);}
	.st72{clip-path:url(#SVGID_00000115501121233883283430000009517997836404595888_);}
	.st73{fill:url(#SVGID_00000053521824508412297400000014296116153720320160_);}
	.st74{clip-path:url(#SVGID_00000031892842465311114450000017523344279714417825_);}
	.st75{fill:url(#SVGID_00000085237594542176560130000002722126476264884656_);}
	.st76{clip-path:url(#SVGID_00000163777284779306527680000015889419345921905591_);}
	.st77{fill:url(#SVGID_00000123404686524624971240000004799612663648181902_);}
	.st78{clip-path:url(#SVGID_00000023270024075802349670000015478295597740361127_);}
	.st79{fill:url(#SVGID_00000036942686146811362370000010461708263328345757_);}
	.st80{clip-path:url(#SVGID_00000003080068585402947530000001621755873907274670_);}
	.st81{fill:url(#SVGID_00000002347356045087977510000002386470053482146721_);}
	.st82{clip-path:url(#SVGID_00000039133769296584142970000007000341852252797114_);}
	.st83{fill:url(#SVGID_00000047048390538303739110000018215329418613256321_);}
	.st84{clip-path:url(#SVGID_00000072259832028262866060000003719568125180930470_);}
	.st85{fill:url(#SVGID_00000060005915814730730960000003919635746362989192_);}
	.st86{fill:#9DBF4B;}
	.st87{fill:#254C24;}
	.st88{fill:#BA2F71;}
	.st89{fill:#6DA642;}
	.st90{fill:#459DD0;}
	.st91{fill:#7FAD4A;}
	.st92{fill:#1A7DB7;}
	.st93{fill:#231F20;}
	.st94{fill:#353535;}
	.st95{fill:#B73B77;}
	.st96{fill:#117FB8;}
	.st97{fill:#76A149;}
</style>
<g>
	<path class="st87" d="M59.8,30.1h10.3l15.8,43.8h-9.5l-3-9H56.5l-2.9,9h-9.5L59.8,30.1z M65,38.9l-6.1,18.7H71L65,38.9z"/>
	<path class="st87" d="M90.5,73.9V30.1h9.5l17.8,30v-30h8.8v43.8h-9.3l-17.8-30v30H90.5z"/>
	<path class="st87" d="M146.6,30.1H157l15.8,43.8h-9.5l-3-9h-16.9l-2.9,9H131L146.6,30.1z M151.9,38.9l-6.1,18.7H158L151.9,38.9z"/>
	<path class="st87" d="M177.3,73.9V30.1h9.5l17.8,30v-30h8.8v43.8H204l-17.8-30v30H177.3z"/>
	<path class="st87" d="M222.5,73.9V30.1h17c6.7,0,11.7,1.8,15,5.4c3.3,3.7,4.9,9.1,4.9,16.5c0.1,3.6-0.5,7.2-1.8,10.6
		c-1.1,2.9-2.9,5.4-5.3,7.3c-1.8,1.4-3.8,2.4-5.9,3c-3.1,0.7-6.2,1-9.3,0.9H222.5z M231.3,65.9h7.2c4.2,0,7.2-1.1,9.1-3.3
		s2.8-5.7,2.8-10.6s-0.9-8.5-2.7-10.7s-4.4-3.4-8.2-3.4h-8.3L231.3,65.9L231.3,65.9z"/>
	<path class="st87" d="M277.7,30.1h10.3l15.8,43.8h-9.5l-3-9h-16.9l-2.9,9h-9.3L277.7,30.1z M282.9,38.9l-6.1,18.7H289L282.9,38.9z"
		/>
</g>
<rect x="45.4" y="80.8" class="st93" width="257.2" height="0.4"/>
<g>
	<path class="st94" d="M123.7,94.7c0,0.4-0.1,0.8-0.2,1.1c-0.1,0.3-0.3,0.6-0.5,0.9c-0.2,0.3-0.4,0.5-0.7,0.7
		c-0.3,0.2-0.6,0.3-0.9,0.5c-0.3,0.1-0.7,0.2-1.1,0.3c-0.4,0.1-0.9,0.1-1.3,0.1h-3.1c-0.2,0-0.4-0.1-0.5-0.2
		c-0.2-0.2-0.2-0.4-0.2-0.6V87.2c0-0.2,0.1-0.4,0.2-0.6c0.1-0.1,0.3-0.2,0.5-0.2h2.9c0.6,0,1.2,0,1.8,0.2c0.5,0.1,0.9,0.3,1.3,0.6
		c0.3,0.2,0.6,0.6,0.8,0.9c0.2,0.4,0.3,0.9,0.3,1.3c0,0.3,0,0.5-0.1,0.8c-0.1,0.2-0.2,0.5-0.3,0.7c-0.1,0.2-0.3,0.4-0.5,0.5
		c-0.2,0.2-0.4,0.3-0.7,0.4c0.3,0.1,0.6,0.2,0.9,0.3c0.3,0.2,0.5,0.3,0.7,0.6c0.2,0.2,0.4,0.5,0.5,0.8
		C123.6,93.9,123.7,94.3,123.7,94.7z M120.6,89.7c0-0.2,0-0.4-0.1-0.6c-0.1-0.2-0.2-0.3-0.3-0.5c-0.2-0.1-0.3-0.2-0.6-0.3
		c-0.3-0.1-0.6-0.1-0.9-0.1h-1.2v3h1.3c0.3,0,0.6,0,0.8-0.1c0.2-0.1,0.4-0.2,0.5-0.3c0.1-0.1,0.2-0.3,0.3-0.5
		C120.5,90.1,120.6,89.9,120.6,89.7z M121.2,94.7c0-0.2,0-0.5-0.1-0.7c-0.1-0.2-0.2-0.4-0.4-0.5c-0.2-0.2-0.4-0.3-0.7-0.3
		c-0.3-0.1-0.7-0.1-1.1-0.1h-1.4v3.3h1.7c0.3,0,0.6,0,0.8-0.1c0.2-0.1,0.4-0.2,0.6-0.3c0.2-0.1,0.3-0.3,0.4-0.5
		C121.1,95.2,121.2,95,121.2,94.7L121.2,94.7z"/>
	<path class="st94" d="M135.4,97.2c0,0.2,0,0.3,0,0.4c0,0.1,0,0.2-0.1,0.3c0,0.1-0.1,0.1-0.1,0.2c0,0-0.1,0-0.1,0h-5.9
		c-0.2,0-0.4-0.1-0.5-0.2c-0.2-0.2-0.2-0.4-0.2-0.6V87.2c0-0.2,0.1-0.4,0.2-0.6c0.1-0.1,0.3-0.2,0.5-0.2h5.8c0,0,0.1,0,0.1,0
		c0,0,0.1,0.1,0.1,0.2c0,0.1,0.1,0.2,0.1,0.3c0,0.1,0,0.3,0,0.4c0,0.1,0,0.3,0,0.4c0,0.1,0,0.2-0.1,0.3c0,0.1-0.1,0.1-0.1,0.2
		c0,0-0.1,0-0.1,0h-4.2v2.8h3.5c0,0,0.1,0,0.1,0c0.1,0,0.1,0.1,0.1,0.2c0,0.1,0.1,0.2,0.1,0.3c0,0.1,0,0.3,0,0.4c0,0.1,0,0.3,0,0.4
		c0,0.1,0,0.2-0.1,0.3c0,0.1-0.1,0.1-0.1,0.2c0,0-0.1,0-0.1,0h-3.5v3.3h4.2c0.1,0,0.1,0,0.1,0.1c0,0,0.1,0.1,0.1,0.2
		c0,0.1,0.1,0.2,0.1,0.3C135.4,96.9,135.4,97,135.4,97.2z"/>
	<path class="st94" d="M150.1,97.3c0,0.1,0,0.3-0.1,0.4c0,0.1-0.1,0.2-0.2,0.3c-0.1,0.1-0.2,0.1-0.3,0.2c-0.1,0-0.2,0-0.3,0h-1
		c-0.2,0-0.4,0-0.5-0.1c-0.2,0-0.3-0.1-0.4-0.2c-0.1-0.1-0.3-0.3-0.4-0.4c-0.1-0.2-0.2-0.4-0.4-0.7l-2.9-5.4c-0.2-0.3-0.3-0.7-0.5-1
		s-0.3-0.7-0.5-1.1l0,0c0,0.4,0,0.9,0.1,1.3s0,0.9,0,1.3v6.1c0,0.1,0,0.1,0,0.2c0,0.1-0.1,0.1-0.2,0.1c-0.1,0-0.2,0.1-0.3,0.1
		c-0.2,0-0.4,0-0.5,0c-0.2,0-0.3,0-0.5,0c-0.1,0-0.2,0-0.3-0.1c-0.1,0-0.2-0.2-0.2-0.3V87.3c0-0.2,0.1-0.5,0.2-0.6
		c0.2-0.1,0.4-0.2,0.6-0.2h1.3c0.2,0,0.4,0,0.6,0.1c0.1,0,0.3,0.1,0.4,0.2c0.1,0.1,0.2,0.2,0.3,0.4c0.1,0.2,0.2,0.4,0.3,0.6l2.3,4.3
		c0.1,0.2,0.3,0.5,0.4,0.8l0.4,0.7l0.4,0.7c0.1,0.2,0.2,0.5,0.3,0.7l0,0c0-0.4,0-0.9,0-1.3s0-0.9,0-1.3v-5.5c0-0.1,0-0.1,0.1-0.2
		c0-0.1,0.1-0.1,0.2-0.1c0.1,0,0.2-0.1,0.3-0.1c0.2,0,0.4,0,0.5,0c0.2,0,0.3,0,0.5,0c0.1,0,0.2,0,0.3,0.1c0.1,0,0.1,0.1,0.2,0.1
		c0,0.1,0,0.1,0,0.2L150.1,97.3z"/>
	<path class="st94" d="M165,88.3c0,0.1,0,0.3,0,0.4c0,0.1,0,0.2-0.1,0.3c0,0.1-0.1,0.1-0.1,0.2c0,0-0.1,0-0.1,0
		c-0.1,0-0.3-0.1-0.4-0.2c-0.2-0.1-0.5-0.2-0.7-0.3c-0.3-0.1-0.7-0.3-1-0.3c-0.5-0.1-0.9-0.2-1.4-0.2c-0.5,0-1.1,0.1-1.5,0.3
		c-0.4,0.2-0.8,0.5-1.2,0.8c-0.3,0.4-0.6,0.8-0.8,1.3c-0.2,0.5-0.3,1.1-0.3,1.7c0,0.6,0.1,1.2,0.3,1.8c0.2,0.5,0.4,0.9,0.8,1.3
		c0.3,0.3,0.7,0.6,1.1,0.8c0.5,0.2,1,0.3,1.5,0.3c0.3,0,0.5,0,0.8-0.1c0.3-0.1,0.5-0.1,0.7-0.3v-2.7h-2.2c-0.1,0-0.2-0.1-0.2-0.2
		c-0.1-0.2-0.1-0.4-0.1-0.7c0-0.2,0-0.3,0-0.4c0-0.1,0-0.2,0.1-0.3c0-0.1,0.1-0.1,0.1-0.2c0,0,0.1,0,0.1-0.1h3.9
		c0.1,0,0.2,0,0.2,0.1c0.1,0,0.1,0.1,0.2,0.2c0.1,0.1,0.1,0.2,0.1,0.2c0,0.1,0,0.2,0,0.3v4.6c0,0.2,0,0.3-0.1,0.5
		c-0.1,0.2-0.2,0.3-0.4,0.3c-0.2,0.1-0.5,0.2-0.7,0.2c-0.3,0.1-0.6,0.2-0.9,0.2c-0.3,0.1-0.6,0.1-0.9,0.1s-0.6,0.1-0.9,0.1
		c-0.9,0-1.7-0.1-2.5-0.4c-0.7-0.2-1.3-0.6-1.9-1.2c-0.5-0.5-0.9-1.2-1.2-1.9c-0.3-0.8-0.4-1.6-0.4-2.5c0-0.9,0.1-1.7,0.4-2.6
		c0.3-0.7,0.7-1.4,1.2-1.9c0.5-0.5,1.2-1,1.9-1.2c0.8-0.3,1.6-0.4,2.5-0.4c0.5,0,0.9,0,1.4,0.1c0.4,0.1,0.7,0.1,1.1,0.2
		c0.3,0.1,0.5,0.2,0.8,0.3c0.2,0.1,0.3,0.2,0.4,0.3c0.1,0.1,0.1,0.2,0.2,0.4C165,87.8,165,88.1,165,88.3z"/>
	<path class="st94" d="M179.9,97.3c0.1,0.2,0.1,0.3,0.1,0.5c0,0.1,0,0.2-0.1,0.3c-0.1,0.1-0.2,0.1-0.4,0.1c-0.2,0-0.5,0-0.7,0h-0.7
		c-0.1,0-0.3,0-0.4,0c-0.1,0-0.1-0.1-0.2-0.1c0-0.1-0.1-0.1-0.1-0.2l-0.8-2.3h-4.4l-0.7,2.3c0,0.1,0,0.1-0.1,0.2
		c0,0.1-0.1,0.1-0.2,0.1c-0.1,0-0.2,0.1-0.4,0.1h-0.6c-0.2,0-0.4,0-0.6,0c-0.1,0-0.2,0-0.3-0.1c-0.1-0.1-0.1-0.2-0.1-0.3
		c0-0.2,0.1-0.3,0.1-0.5l3.6-10.3c0-0.1,0.1-0.2,0.1-0.2c0.1-0.1,0.1-0.1,0.2-0.2c0.1,0,0.3-0.1,0.4-0.1h1.6c0.2,0,0.3,0,0.5,0.1
		c0.1,0,0.2,0.1,0.3,0.2c0.1,0.1,0.1,0.2,0.1,0.3L179.9,97.3z M174.6,88.7L174.6,88.7l-1.6,5h3.3L174.6,88.7z"/>
	<path class="st94" d="M190.9,97.2c0,0.1,0,0.3,0,0.4c0,0.1,0,0.2-0.1,0.3c0,0.1-0.1,0.1-0.1,0.2c-0.1,0-0.1,0-0.2,0h-5.3
		c-0.2,0-0.4-0.1-0.5-0.2c-0.2-0.2-0.2-0.4-0.2-0.6V86.8c0-0.1,0-0.1,0.1-0.2c0.1-0.1,0.1-0.1,0.2-0.1c0.1,0,0.2-0.1,0.4-0.1h0.6
		h0.6c0.1,0,0.2,0,0.4,0.1c0.1,0,0.1,0.1,0.2,0.1c0,0,0.1,0.1,0.1,0.2v9.4h3.7c0.1,0,0.1,0,0.2,0c0.1,0,0.1,0.1,0.1,0.2
		c0,0.1,0.1,0.2,0.1,0.3C191,96.8,191,97,190.9,97.2z"/>
	<path class="st94" d="M204.4,93.8c0,0.7-0.1,1.3-0.3,1.9c-0.2,0.5-0.5,1-0.9,1.4c-0.4,0.4-0.9,0.7-1.5,0.9
		c-0.7,0.2-1.4,0.3-2.1,0.3c-0.7,0-1.4-0.1-2-0.3c-0.6-0.2-1.1-0.4-1.5-0.8c-0.4-0.4-0.7-0.9-0.9-1.4c-0.2-0.6-0.3-1.3-0.3-2v-7
		c0-0.1,0-0.1,0.1-0.2c0.1-0.1,0.1-0.1,0.2-0.1c0.1,0,0.2-0.1,0.4-0.1h0.6h0.6c0.1,0,0.2,0,0.4,0.1c0.1,0,0.1,0.1,0.2,0.1
		c0,0,0.1,0.1,0.1,0.2v6.9c0,0.4,0,0.8,0.2,1.2c0.1,0.3,0.3,0.6,0.5,0.8c0.2,0.2,0.5,0.4,0.8,0.5c0.3,0.1,0.7,0.2,1,0.2
		c0.3,0,0.7,0,1-0.2c0.3-0.1,0.5-0.3,0.7-0.5c0.2-0.2,0.4-0.5,0.5-0.8c0.1-0.4,0.2-0.7,0.2-1.1v-7c0-0.1,0-0.1,0.1-0.2
		c0-0.1,0.1-0.1,0.2-0.1c0.1,0,0.2-0.1,0.4-0.1h0.6h0.6c0.1,0,0.2,0,0.4,0.1c0.1,0,0.1,0.1,0.2,0.1c0,0,0.1,0.1,0,0.2L204.4,93.8z"
		/>
	<path class="st94" d="M218.5,97.8c0,0.1,0,0.1,0,0.2c0,0.1-0.1,0.1-0.2,0.1c-0.1,0-0.3,0.1-0.4,0.1h-1.3c-0.1,0-0.2,0-0.4-0.1
		c-0.1,0-0.1-0.1-0.2-0.1c0-0.1-0.1-0.1-0.1-0.2l-1-2.6c-0.1-0.3-0.2-0.5-0.4-0.8c-0.1-0.2-0.2-0.4-0.4-0.6
		c-0.1-0.2-0.3-0.3-0.5-0.3c-0.2-0.1-0.4-0.1-0.7-0.1h-0.7v4.4c0,0.1,0,0.1-0.1,0.2c-0.1,0.1-0.1,0.1-0.2,0.1
		c-0.1,0-0.2,0.1-0.4,0.1c-0.2,0-0.4,0-0.6,0c-0.2,0-0.4,0-0.6,0c-0.1,0-0.2,0-0.4-0.1c-0.1,0-0.1-0.1-0.2-0.1c0,0,0-0.1,0-0.2V87.2
		c0-0.2,0.1-0.4,0.2-0.6c0.1-0.1,0.3-0.2,0.5-0.2h3h0.8h0.5c0.4,0.1,0.9,0.2,1.3,0.3c0.4,0.1,0.7,0.4,1,0.6c0.3,0.3,0.5,0.6,0.6,0.9
		c0.1,0.4,0.2,0.8,0.2,1.2c0,0.4,0,0.7-0.1,1.1c-0.2,0.6-0.6,1.2-1.1,1.5c-0.3,0.2-0.6,0.4-1,0.4c0.2,0.1,0.3,0.2,0.5,0.3
		c0.2,0.1,0.3,0.3,0.4,0.4c0.1,0.2,0.3,0.4,0.4,0.6c0.1,0.2,0.2,0.5,0.4,0.7l1,2.3c0.1,0.2,0.1,0.4,0.2,0.5
		C218.5,97.6,218.5,97.7,218.5,97.8z M215.5,89.9c0-0.4-0.1-0.7-0.3-1c-0.2-0.3-0.5-0.5-0.9-0.6l-0.4-0.1c-0.2,0-0.4,0-0.6,0h-1.1
		v3.3h1.2c0.3,0,0.6,0,0.9-0.1c0.2-0.1,0.4-0.2,0.6-0.3c0.2-0.1,0.3-0.3,0.4-0.5C215.5,90.4,215.5,90.2,215.5,89.9z"/>
	<path class="st94" d="M232.8,93.8c0,0.7-0.1,1.3-0.3,1.9c-0.2,0.5-0.5,1-0.9,1.4c-0.4,0.4-0.9,0.7-1.5,0.9
		c-0.7,0.2-1.4,0.3-2.1,0.3c-0.7,0-1.4-0.1-2-0.3c-0.5-0.2-1.1-0.4-1.5-0.8c-0.4-0.4-0.7-0.9-0.9-1.4c-0.2-0.6-0.3-1.3-0.3-2v-7
		c0-0.1,0-0.1,0-0.2c0.1-0.1,0.2-0.1,0.3-0.1c0.1,0,0.2-0.1,0.4-0.1h0.6h0.6c0.1,0,0.2,0,0.4,0.1c0.1,0,0.1,0.1,0.2,0.1
		c0,0,0.1,0.1,0.1,0.2v6.9c0,0.4,0,0.8,0.2,1.2c0.1,0.3,0.3,0.6,0.5,0.8c0.2,0.2,0.5,0.4,0.8,0.5c0.3,0.1,0.7,0.2,1,0.2
		c0.3,0,0.7,0,1-0.2c0.3-0.1,0.5-0.3,0.8-0.5c0.2-0.2,0.4-0.5,0.5-0.8c0.1-0.4,0.2-0.7,0.2-1.1v-7c0-0.1,0-0.1,0-0.2
		c0-0.1,0.1-0.1,0.2-0.1c0.1,0,0.2-0.1,0.4-0.1h0.6h0.6c0.1,0,0.2,0,0.3,0.1c0.1,0,0.1,0.1,0.2,0.1c0,0,0.1,0.1,0.1,0.2L232.8,93.8z
		"/>
</g>
<g>
	<g>
		<path d="M132.6,13.8v2.7h6.1c0,0.2-0.1,0.3-0.1,0.5c-0.3,1-0.8,1.9-1.6,2.5c-0.2,0.1-0.4,0.3-0.5,0.4c-0.8,0.5-1.7,0.7-2.8,0.7
			c-1.1,0-2.1-0.2-2.9-0.7c-0.8-0.5-1.5-1.2-2-2c-0.1-0.2-0.2-0.5-0.3-0.7c-0.3-0.7-0.4-1.5-0.4-2.4c0-0.4,0-0.8,0.1-1.1
			c0.1-0.7,0.3-1.4,0.6-2c0.5-0.9,1.1-1.6,1.9-2c0.8-0.5,1.7-0.7,2.8-0.7c1,0,1.8,0.2,2.5,0.6c0.7,0.4,1.3,1,1.7,1.7h4.1
			c-0.6-1.8-1.6-3.1-3.1-4.1c-1.5-1-3.2-1.5-5.2-1.5c-1.7,0-3.2,0.4-4.6,1.2c-1.4,0.8-2.5,1.9-3.3,3.2c-0.4,0.6-0.6,1.3-0.8,2
			c-0.2,0.8-0.3,1.7-0.3,2.7c0,0.2,0,0.3,0,0.5c0.1,1.6,0.5,3,1.2,4.2c0.8,1.4,1.9,2.5,3.3,3.2c1.4,0.8,2.9,1.2,4.7,1.2
			c1.5,0,2.9-0.3,4.2-1c1-0.5,1.9-1.2,2.6-2c0.2-0.2,0.3-0.4,0.5-0.6c0.6-0.8,1-1.6,1.3-2.5c0.1-0.3,0.2-0.6,0.2-0.9v-3.1H132.6z"/>
		<path d="M161.1,10.1c-0.8-1.4-1.9-2.5-3.3-3.3c-1.4-0.8-2.9-1.2-4.6-1.2c-1.7,0-3.2,0.4-4.6,1.2c-1.4,0.8-2.5,1.9-3.3,3.3
			c-0.8,1.4-1.2,2.9-1.2,4.7c0,1.3,0.2,2.6,0.7,3.7c0.1,0.4,0.3,0.7,0.5,1c0.8,1.3,1.8,2.4,3.1,3.1c0.1,0,0.1,0.1,0.2,0.1
			c1.4,0.8,2.9,1.2,4.6,1.2c0.8,0,1.6-0.1,2.4-0.3h0c0.8-0.2,1.5-0.5,2.2-0.9c1-0.6,1.9-1.3,2.6-2.2c0.3-0.3,0.5-0.7,0.7-1.1
			c0.8-1.4,1.2-3,1.2-4.7C162.3,13,161.9,11.5,161.1,10.1z M153.2,20.7c-1.1,0-2-0.2-2.9-0.7c-0.4-0.2-0.7-0.5-1-0.7
			c-0.4-0.4-0.7-0.8-1-1.3c-0.5-0.9-0.7-2-0.7-3.1c0-1.2,0.2-2.2,0.7-3.1c0.5-0.9,1.1-1.6,1.9-2.1c0.8-0.5,1.8-0.7,2.9-0.7
			c1.1,0,2,0.2,2.8,0.7c0.8,0.5,1.5,1.2,1.9,2.1c0.5,0.9,0.7,1.9,0.7,3.1c0,1.2-0.2,2.2-0.7,3.1c-0.5,0.9-1.1,1.6-1.9,2.1
			c-0.1,0-0.1,0.1-0.2,0.1C155,20.5,154.1,20.7,153.2,20.7z"/>
		<path d="M179.4,10.1c-0.8-1.4-1.9-2.4-3.3-3.1s-3.1-1.1-4.9-1.1h-6.2v17.8h6.2c1.9,0,3.5-0.4,4.9-1.1c0.8-0.4,1.5-0.9,2.1-1.5
			c0.5-0.5,0.9-1,1.2-1.6c0.8-1.3,1.2-2.9,1.2-4.7C180.6,13,180.2,11.5,179.4,10.1z M168.5,8.9h2.5c1.9,0,3.3,0.5,4.3,1.6
			c1,1,1.5,2.5,1.5,4.4c0,1.9-0.5,3.3-1.5,4.3c-1,1-2.5,1.5-4.3,1.5h-2.5V8.9z"/>
		<path d="M196.4,23.4l-2-3.4l-2.1-3.5c1.3-0.4,2.4-1,3-2c0.7-0.9,1-2,1-3.2c0-1-0.2-2-0.7-2.8c-0.5-0.8-1.2-1.5-2.2-2
			s-2.1-0.7-3.5-0.7h-6.7v17.8h3.6v-7h1.7l2,3.6l1.9,3.3h4.1L196.4,23.4z M189.8,14.1h-3V8.9h3c1,0,1.7,0.2,2.2,0.7
			c0.5,0.4,0.7,1.1,0.7,1.9c0,0.8-0.2,1.5-0.7,2C191.5,13.9,190.8,14.1,189.8,14.1z"/>
		<path d="M210,8.8V5.9h-10.4v17.9H210v-2.9h-6.8v-4.7h6v-2.8h-6V8.8H210z"/>
		<path d="M220,5.9v12.5c0,0.7-0.2,1.3-0.5,1.7c-0.3,0.4-0.8,0.6-1.5,0.6c-0.7,0-1.2-0.2-1.5-0.6c-0.2-0.2-0.3-0.5-0.4-0.8
			c-0.1-0.3-0.1-0.6-0.1-1h-3.6c0,0.7,0.1,1.4,0.3,2c0.2,0.8,0.7,1.5,1.3,2.1c1,1,2.4,1.5,4.1,1.5c1.7,0,3-0.5,4-1.4
			c1-1,1.5-2.3,1.5-4V5.9H220z"/>
	</g>
	<g>
		<path class="st95" d="M140,20.9c0.1,0,0.2,0,0.3,0.1c-0.7,0.8-1.6,1.5-2.6,2c-1.2,0.6-2.6,1-4.2,1c-1.7,0-3.3-0.4-4.7-1.2
			c-1.4-0.8-2.5-1.9-3.3-3.2c-0.7-1.3-1.1-2.6-1.2-4.2c0.3,0.2,0.7,0.3,1,0.5c0.3,0.2,0.7,0.3,1,0.5c0,0,0,0,0,0
			c0.3,0.2,0.7,0.3,1,0.5c0.3,0.1,0.7,0.3,1,0.4c0,0,0,0,0,0c0.1,0.2,0.2,0.5,0.3,0.7c0.5,0.9,1.1,1.6,2,2c0.8,0.5,1.8,0.7,2.9,0.7
			c1.1,0,2-0.2,2.8-0.7c0.1,0,0.2,0.1,0.3,0.1c0.6,0.2,1.1,0.3,1.7,0.5C139,20.6,139.5,20.8,140,20.9z"/>
		<path class="st95" d="M153.6,23.4c0.6,0.1,1.3,0.2,1.9,0.2c-0.8,0.2-1.5,0.3-2.4,0.3c-1.7,0-3.2-0.4-4.6-1.2
			c-0.1,0-0.1-0.1-0.2-0.1c0.5,0.1,1,0.2,1.5,0.2c0.6,0.1,1.2,0.2,1.8,0.3C152.3,23.2,153,23.3,153.6,23.4z"/>
		<path class="st95" d="M196.4,23.4l0.2,0.3h-2.7c0,0,0,0,0,0c0.6-0.1,1.3-0.1,1.9-0.2C196,23.5,196.2,23.4,196.4,23.4z"/>
		<path class="st95" d="M208.5,21.3c0.5-0.1,1-0.2,1.5-0.3v2.7h-10.3V23c0.4-0.1,0.8-0.1,1.2-0.2c0.8-0.1,1.6-0.3,2.4-0.4
			c0.7-0.1,1.4-0.3,2.2-0.4c0.7-0.1,1.3-0.3,2-0.4C207.8,21.5,208.1,21.4,208.5,21.3z"/>
		<path class="st95" d="M223.6,16.4v2c0,1.7-0.5,3.1-1.5,4c-1,1-2.4,1.4-4,1.4c-1.7,0-3.1-0.5-4.1-1.5c-0.6-0.6-1-1.3-1.3-2.1
			c0.6-0.2,1.2-0.3,1.7-0.5c0.6-0.2,1.1-0.3,1.7-0.5c0.1,0.3,0.2,0.6,0.4,0.8c0.4,0.4,0.9,0.6,1.5,0.6c0.6,0,1.1-0.2,1.5-0.6
			c0.3-0.4,0.5-1,0.5-1.7v-0.5c0.7-0.3,1.4-0.5,2-0.8c0.4-0.2,0.8-0.3,1.2-0.5C223.3,16.6,223.5,16.5,223.6,16.4z"/>
		<path class="st96" d="M128.5,17.2C128.5,17.2,128.4,17.2,128.5,17.2c-0.4-0.2-0.7-0.3-1-0.4c-0.3-0.1-0.7-0.3-1-0.5c0,0,0,0,0,0
			c-0.3-0.2-0.7-0.3-1-0.5c-0.3-0.2-0.7-0.3-1-0.5c0-0.2,0-0.3,0-0.5c0-1,0.1-1.8,0.3-2.7c1.1,0.6,2.2,1.1,3.4,1.6
			c-0.1,0.4-0.1,0.7-0.1,1.1C128.1,15.7,128.2,16.5,128.5,17.2z"/>
		<path class="st96" d="M136.6,16.5h-4.1v-1.2C133.9,15.8,135.3,16.2,136.6,16.5z"/>
		<path class="st96" d="M138.6,17.1c1.1,0.3,2.3,0.6,3.4,0.8c-0.3,0.9-0.7,1.7-1.3,2.5c-0.1,0.2-0.3,0.4-0.5,0.6
			c-0.1,0-0.2,0-0.3-0.1c-0.5-0.1-1-0.2-1.5-0.4c-0.6-0.1-1.1-0.3-1.7-0.5c-0.1,0-0.2-0.1-0.3-0.1c0.2-0.1,0.4-0.2,0.5-0.4
			C137.7,18.9,138.3,18.1,138.6,17.1z"/>
		<path class="st96" d="M160.3,20.5c-0.7,0.9-1.6,1.6-2.6,2.2c-0.7,0.4-1.5,0.7-2.2,0.9h0c-0.6-0.1-1.3-0.1-1.9-0.2
			c-0.6-0.1-1.3-0.2-1.9-0.3c-0.6-0.1-1.2-0.2-1.8-0.3c-0.5-0.1-1-0.2-1.5-0.2c-1.3-0.8-2.3-1.8-3.1-3.1c-0.2-0.3-0.4-0.7-0.5-1
			c1.4,0.3,2.9,0.5,4.3,0.8c0.1,0,0.2,0,0.3,0c0.3,0.3,0.6,0.5,1,0.7c0.8,0.5,1.8,0.7,2.9,0.7c1,0,1.8-0.2,2.6-0.6
			C157.3,20.3,158.8,20.4,160.3,20.5z"/>
		<path class="st96" d="M178.2,21.1c-0.6,0.6-1.3,1.1-2.1,1.5c-1.4,0.7-3.1,1.1-4.9,1.1h-6.2v-2.9c1.4,0.1,2.7,0.1,4.1,0.2
			c1,0,2,0,3,0.1C174.1,21.1,176.1,21.1,178.2,21.1z"/>
		<path class="st96" d="M184.2,20.9c0.9,0,1.7-0.1,2.6-0.2v3h-3.6v-2.8C183.6,20.9,183.9,20.9,184.2,20.9z"/>
		<path class="st96" d="M194.4,20l2,3.4c-0.2,0-0.4,0.1-0.6,0.1c-0.6,0.1-1.3,0.2-1.9,0.2c0,0,0,0,0,0h-1.4l-1.9-3.3
			c1.1-0.1,2.2-0.2,3.4-0.3C194.1,20,194.2,20,194.4,20z"/>
		<path class="st96" d="M210,20.8V21c-0.5,0.1-1,0.2-1.5,0.3c-0.3,0.1-0.7,0.2-1,0.2c-0.7,0.1-1.3,0.3-2,0.4
			c-0.7,0.1-1.4,0.3-2.2,0.4c-0.8,0.1-1.6,0.3-2.4,0.4c-0.4,0.1-0.8,0.1-1.2,0.2v-3.7c1.2-0.2,2.4-0.4,3.6-0.6v2.1H210z"/>
		<path class="st96" d="M215.9,18.3c0,0.4,0.1,0.7,0.1,1c-0.6,0.2-1.1,0.4-1.7,0.5c-0.6,0.2-1.1,0.3-1.7,0.5c-0.2-0.6-0.3-1.3-0.3-2
			H215.9z"/>
		<path class="st96" d="M223.6,12.6v3.8c-0.1,0.1-0.3,0.1-0.4,0.2c-0.4,0.2-0.8,0.3-1.2,0.5c-0.7,0.3-1.3,0.6-2,0.8v-3.8
			c0.5-0.2,1.1-0.4,1.6-0.7C222.3,13.2,222.9,12.9,223.6,12.6z"/>
		<path class="st97" d="M133.5,9c-1.1,0-2,0.2-2.8,0.7c-0.8,0.5-1.5,1.2-1.9,2c-0.3,0.6-0.5,1.2-0.6,2c-1.2-0.5-2.3-1-3.4-1.6
			c0.2-0.7,0.5-1.4,0.8-2c0.8-1.4,1.9-2.5,3.3-3.2c1.4-0.8,2.9-1.2,4.6-1.2c2,0,3.8,0.5,5.2,1.5c1.5,1,2.5,2.4,3.1,4.1h-4.1
			c-0.4-0.8-1-1.3-1.7-1.7C135.3,9.2,134.4,9,133.5,9z"/>
		<path class="st97" d="M142.2,13.8v3.1c-0.1,0.3-0.1,0.6-0.2,0.9c-1.1-0.3-2.3-0.5-3.4-0.8c-0.6-0.2-1.3-0.3-1.9-0.5
			c-1.4-0.4-2.7-0.8-4.1-1.2v-1.5H142.2z"/>
		<path class="st97" d="M162.3,14.8c0,1.8-0.4,3.3-1.2,4.7c-0.2,0.4-0.5,0.7-0.7,1.1c-1.5-0.1-3-0.3-4.6-0.4c0.1,0,0.1-0.1,0.2-0.1
			c0.8-0.5,1.5-1.2,1.9-2.1s0.7-2,0.7-3.1c0-1.2-0.2-2.2-0.7-3.1c-0.5-0.9-1.1-1.6-1.9-2.1c-0.8-0.5-1.8-0.7-2.8-0.7
			c-1.1,0-2,0.2-2.9,0.7c-0.8,0.5-1.5,1.2-1.9,2.1c-0.5,0.9-0.7,1.9-0.7,3.1c0,1.2,0.2,2.2,0.7,3.1c0.3,0.5,0.6,1,1,1.3
			c-0.1,0-0.2,0-0.3,0c-1.5-0.2-2.9-0.5-4.3-0.8c-0.5-1.1-0.7-2.3-0.7-3.7c0-1.7,0.4-3.3,1.2-4.7c0.8-1.4,1.9-2.5,3.3-3.3
			c1.4-0.8,2.9-1.2,4.6-1.2c1.7,0,3.2,0.4,4.6,1.2c1.4,0.8,2.5,1.9,3.3,3.3C161.9,11.5,162.3,13,162.3,14.8z"/>
		<path class="st97" d="M179.4,10.1c-0.8-1.4-1.9-2.4-3.3-3.1s-3.1-1.1-4.9-1.1h-6.2v15c1.4,0.1,2.7,0.1,4.1,0.2c1,0,2,0,3,0.1
			c2.1,0,4.1,0,6.2,0c0.5-0.5,0.9-1,1.2-1.6c0.8-1.3,1.2-2.9,1.2-4.7C180.6,13,180.2,11.5,179.4,10.1z M175.4,19.1
			c-1,1-2.5,1.5-4.3,1.5h-2.5V8.9h2.5c1.9,0,3.3,0.5,4.3,1.6c1,1,1.5,2.5,1.5,4.4C176.9,16.7,176.4,18.1,175.4,19.1z"/>
		<path class="st97" d="M195.6,8.6c-0.5-0.8-1.2-1.5-2.2-2s-2.1-0.7-3.5-0.7h-6.7v15c0.3,0,0.7,0,1,0c0.9,0,1.7-0.1,2.6-0.2v-3.9
			h1.7l2,3.6c1.1-0.1,2.2-0.2,3.4-0.3c0.2,0,0.3,0,0.5-0.1l-2.1-3.5c1.3-0.4,2.4-1,3-2c0.7-0.9,1-2,1-3.2
			C196.4,10.3,196.1,9.4,195.6,8.6z M192,13.4c-0.5,0.5-1.2,0.7-2.2,0.7h-3V8.9h3c1,0,1.7,0.2,2.2,0.7c0.5,0.4,0.7,1.1,0.7,1.9
			C192.7,12.3,192.5,12.9,192,13.4z"/>
		<path class="st97" d="M199.6,5.9H210v2.9h-6.8v4.5h6v2.8h-6v2.6c-1.2,0.2-2.4,0.4-3.6,0.6V5.9z"/>
		<path class="st97" d="M223.6,5.9v6.7c-0.7,0.3-1.3,0.6-2,0.9c-0.5,0.2-1.1,0.4-1.6,0.7V5.9H223.6z"/>
	</g>
</g>
</svg>
